# Alias OBJ Model File
# Exported from SketchUp, (c) 2000-2012 Trimble Navigation Limited
# File units = meters

mtllib Head.mtl

g Mesh1 Model

usemtl _5
v 0.1 -0.1 -0.1
vt -0.0729076 0.0729076
vn 0 -1 -0
v 0.1 -0.1 0.0784627
vt -0.0729076 -0.0572052
v -0.1 -0.1 0.0784627
vt 0.0729076 -0.0572052
v -0.1 -0.1 -0.1
vt 0.0729076 0.0729076
f 1/1/1 2/2/1 3/3/1 4/4/1 

vt 0.0729076 -0.0729076
vn 1 5.73504e-017 5.03902e-017
v 0.1 0.037205 -0.1
vt 0.0729076 0.0271253
v 0.1 0.037205 -0.01
vt 0.00729076 0.0271253
vt -0.0572052 -0.0729076
f 1/5/2 5/6/2 6/7/2 2/8/2 

vn -2.81997e-017 4.11059e-017 -1
v -0.1 0.037205 -0.1
vt -0.0729076 0.0271253
vt -0.0729076 -0.0729076
f 4/5/3 7/6/3 5/9/3 1/10/3 

vn -1 0 -0
vt 0.0572052 -0.0729076
v -0.1 0.037205 -0.01
vt -0.00729076 0.0271253
f 4/10/4 3/11/4 8/12/4 7/9/4 

usemtl _2
v -0.1 0.1 -0.1
v -0.1 -0.1 0.1
v -0.1 0.1 0.1
f 9/1/4 7/9/4 8/12/4 3/11/4 10/5/4 11/4/4 

v 0.1 0.1 -0.1
vn -2.81997e-017 -8.9815e-017 -1
f 12/1/5 5/9/5 7/6/5 9/4/5 

v 0.1 -0.1 0.1
vn 1 -1.17779e-017 2.17327e-017
v 0.1 0.1 0.1
f 13/10/6 2/8/6 6/7/6 5/6/6 12/4/6 14/1/6 

f 10/5/1 3/3/1 2/2/1 13/10/1 

vn 0 0 1
f 10/10/7 13/5/7 14/4/7 11/1/7 

vn 0 1 -0
f 14/5/8 12/4/8 9/1/8 11/10/8 

