# Alias OBJ Model File
# Exported from SketchUp, (c) 2000-2012 Trimble Navigation Limited
# File units = meters

mtllib UpperLeg.mtl

g Mesh1 Model

usemtl _1
v -0.46 -0.1 0.1
vt 0.0729076 -0.0729076
vn -1 -9.02389e-016 -0
v -0.46 0.1 0.1
vt 0.0729076 0.0729076
v -0.46 0.1 -0.1
vt -0.0729076 0.0729076
v -0.46 -0.1 -0.1
vt -0.0729076 -0.0729076
f 1/1/1 2/2/1 3/3/1 4/4/1 

v 4.51195e-017 -0.1 0.1
vt 3.28955e-017 -0.0729076
vn 0 0 1
v -4.51195e-017 0.1 0.1
vt -3.28955e-017 0.0729076
vt -0.335375 0.0729076
vt -0.335375 -0.0729076
f 5/5/2 6/6/2 2/7/2 1/8/2 

vn 1 4.51195e-016 -0
v 4.51195e-017 -0.1 -0.1
v -4.51195e-017 0.1 -0.1
f 6/3/3 5/4/3 7/1/3 8/2/3 

vt -2.34294e-017 0.0729076
vn 1.29837e-016 -1 -7.09236e-033
vt -2.34294e-017 -0.0729076
vt 0.335375 -0.0729076
vt 0.335375 0.0729076
f 7/9/4 5/10/4 1/11/4 4/12/4 

vt 3.28955e-017 0.0729076
vn 0 0 -1
vt -3.28955e-017 -0.0729076
f 8/13/5 7/14/5 4/11/5 3/12/5 

vn -1.86954e-017 1 7.06863e-034
vt -3.15325e-017 -0.0729076
vt -3.15325e-017 0.0729076
f 2/8/6 6/15/6 8/16/6 3/7/6 

