# Alias OBJ Model File
# Exported from SketchUp, (c) 2000-2012 Trimble Navigation Limited
# File units = meters

mtllib body.mtl

g Mesh1 Model

usemtl _1
v 0.9 0.15 -0.1
vt 0.0729076 0.109361
vn 1 0 -0
v 0.9 0.15 0.1
vt -0.0729076 0.109361
v 0.9 -0.15 0.1
vt -0.0729076 -0.109361
v 0.9 -0.15 -0.1
vt 0.0729076 -0.109361
f 1/1/1 2/2/1 3/3/1 4/4/1 

vt 0.656168 0.0729076
vn -2.55742e-016 1 -1.24079e-015
v 0.635361 0.15 -0.1
vt 0.463226 0.0729076
v 0.635361 0.15 0.1
vt 0.463226 -0.0729076
vt 0.656168 -0.0729076
f 1/5/2 5/6/2 6/7/2 2/8/2 

vt -0.656168 0.109361
vn -7.24602e-016 7.14392e-016 -1
vt -0.656168 -0.109361
v 0.635361 -0.15 -0.1
vt -0.463226 -0.109361
vt -0.463226 0.109361
f 1/9/3 4/10/3 7/11/3 5/12/3 

vt -0.656168 -0.0729076
vn -4.26236e-017 -1 7.33191e-016
v 0.635361 -0.15 0.1
vt -0.463226 -0.0729076
vt -0.463226 0.0729076
vt -0.656168 0.0729076
f 3/13/4 8/14/4 7/15/4 4/16/4 

vt 0.656168 0.109361
vn 5.11484e-016 -3.38396e-016 1
vt 0.463226 0.109361
vt 0.463226 -0.109361
vt 0.656168 -0.109361
f 2/17/5 6/18/5 8/19/5 3/20/5 

usemtl FrontColor
vt 3.93701 -5.90551
vn -1 0 -0
vt 3.93701 5.90551
vt -3.93701 5.90551
vt -3.93701 -5.90551
f 8/21/6 6/22/6 5/23/6 7/24/6 

usemtl _4
v -0.17 -0.15 0.1
vt -0.123943 -0.109361
vn 4.20179e-016 -3.00796e-016 1
v -0.17 0.15 0.1
vt -0.123943 0.109361
f 9/25/7 8/19/7 6/18/7 10/26/7 

v -0.17 -0.15 -0.1
vt 0.123943 0.0729076
vn -9.88557e-032 -1 -2.25597e-016
vt 0.123943 -0.0729076
f 11/27/8 7/15/8 8/14/8 9/28/8 

vt 0.123943 -0.109361
vn -2.87122e-016 4.32395e-016 -1
v -0.17 0.15 -0.1
vt 0.123943 0.109361
f 11/29/9 12/30/9 5/12/9 7/11/9 

f 9/4/6 10/1/6 12/2/6 11/3/6 

vt -0.123943 -0.0729076
vn 1.54066e-016 1 -5.07594e-016
vt -0.123943 0.0729076
f 10/31/10 6/7/10 5/6/10 12/32/10 

